# xmcd CD database file
#
# Track frame offsets:
#	150
#	9948
#	27667
#	40279
#	48206
#	57850
#	66553
#	78103
#	86669
#	97539
#	108589
#	116058
#	134969
#	143833
#	153955
#	162690
#	173832
#	187686
#	198356
#	213670
#	226891
#
# Disc length: 3099 seconds
#
# Revision: 0
# Processed by: cddbd v1.5.2PL0 Copyright (c) Steve Scherf et al.
# Submitted via: CDex 1.51
#
DISCID=1f0c1915
DTITLE=Jimmie Driftwood - Songs By Jimmie Driftwood
DYEAR=1998
DGENRE=Country
TTITLE0=Arkansas Traveler
TTITLE1=Battle Of New Orleans
TTITLE2=Big Hoss
TTITLE3=Billy The Kid
TTITLE4=General Custer
TTITLE5=Jesse James
TTITLE6=Marshall Of Silver City
TTITLE7=Mooshatanio
TTITLE8=Old Joe Clark
TTITLE9=Pony Express
TTITLE10=Razorback Steak
TTITLE11=Shoot The Buffalo
TTITLE12=Slack Your Rope
TTITLE13=Soldier's Joy
TTITLE14=Song Of The Cowboy
TTITLE15=Tennessee Stud
TTITLE16=Tucumari
TTITLE17=What Was Your Name In The States
TTITLE18=Billy Yank and Johnny Reb
TTITLE19=On Top Of Shiloh's Hill
TTITLE20=Giant On The Thunderhead
EXTD=YEAR: 1998
EXTT0=
EXTT1=
EXTT2=
EXTT3=
EXTT4=
EXTT5=
EXTT6=
EXTT7=
EXTT8=
EXTT9=
EXTT10=
EXTT11=
EXTT12=
EXTT13=
EXTT14=
EXTT15=
EXTT16=
EXTT17=
EXTT18=
EXTT19=
EXTT20=
PLAYORDER=
